<svg xmlns="http://www.w3.org/2000/svg" xmlns:xlink="http://www.w3.org/1999/xlink" viewBox="0 0 792 1224"><defs><style>.cls-1{fill:url(#linear-gradient);}.cls-2{fill:#fff;}</style><linearGradient id="linear-gradient" x1="396" y1="1224" x2="396" gradientUnits="userSpaceOnUse"><stop offset="0" stop-color="#ff0049"/><stop offset="1" stop-color="#ff7f4d"/></linearGradient></defs><title>Artboard 3</title><g id="Layer_2" data-name="Layer 2"><rect class="cls-1" width="792" height="1224"/><path class="cls-2" d="M179.73,893.47a7,7,0,0,0,2.27-5.52v-.39a6.33,6.33,0,0,0-2.4-5.23,9.72,9.72,0,0,0-6.24-1.92h-8.65v15.08h8.84A9,9,0,0,0,179.73,893.47Z"/><path class="cls-2" d="M348.36,1006.92a3.46,3.46,0,0,0-1.83-.48,3.51,3.51,0,0,0-1.84.48,3.43,3.43,0,0,0-1.27,1.33,4,4,0,0,0-.46,1.94,3.84,3.84,0,0,0,1,2.69,3.36,3.36,0,0,0,2.56,1,3.47,3.47,0,0,0,1.83-.48,3.38,3.38,0,0,0,1.25-1.33,4,4,0,0,0,.45-1.92,4.08,4.08,0,0,0-.45-1.94A3.38,3.38,0,0,0,348.36,1006.92Z"/><path class="cls-2" d="M173.55,900.56h-8.84v15.21h8.65a9.71,9.71,0,0,0,6.24-1.92,6.4,6.4,0,0,0,2.4-5.3v-.39a7.11,7.11,0,0,0-2.27-5.56A8.89,8.89,0,0,0,173.55,900.56Z"/><path class="cls-2" d="M358.21,958a3.15,3.15,0,0,0-1.76-.53,3.3,3.3,0,0,0-1.79.53,3.8,3.8,0,0,0-1.32,1.44,4.19,4.19,0,0,0-.49,2,4.25,4.25,0,0,0,.49,2,3.87,3.87,0,0,0,1.32,1.46,3.25,3.25,0,0,0,1.79.54,3.12,3.12,0,0,0,1.75-.54,3.72,3.72,0,0,0,1.27-1.45,4.48,4.48,0,0,0,.46-2,4.43,4.43,0,0,0-.46-2A3.66,3.66,0,0,0,358.21,958Z"/><path class="cls-2" d="M213.49,893.15a10.69,10.69,0,0,0-3.67-.65,11.47,11.47,0,0,0-4,.68,10.09,10.09,0,0,0-5.53,4.81,10.62,10.62,0,0,0-1.14,3.61H220a9.37,9.37,0,0,0-1-3.77,9.23,9.23,0,0,0-2.28-2.86A10.53,10.53,0,0,0,213.49,893.15Z"/><path class="cls-2" d="M204.49,1092a1.34,1.34,0,0,0,.43-1.07,1.29,1.29,0,0,0-.43-1,1.88,1.88,0,0,0-1.23-.35h-1.57v2.84h1.57A1.84,1.84,0,0,0,204.49,1092Z"/><path class="cls-2" d="M522.78,1125.26a19.1,19.1,0,0,0-14.71-1.74,1,1,0,1,0,.59,2,17.18,17.18,0,0,1,13,1.53,1,1,0,0,0,1.07-1.74Z"/><path class="cls-2" d="M251.54,819.83a9.23,9.23,0,0,0-2.28-2.86,10.53,10.53,0,0,0-3.18-1.82,10.69,10.69,0,0,0-3.67-.65,11.47,11.47,0,0,0-4,.68,10.09,10.09,0,0,0-5.53,4.81,10.62,10.62,0,0,0-1.14,3.61h20.8A9.37,9.37,0,0,0,251.54,819.83Z"/><path class="cls-2" d="M505.17,1010.42a4.21,4.21,0,0,0-.48-2,3.56,3.56,0,0,0-1.32-1.41,3.64,3.64,0,0,0-1.91-.5,3.69,3.69,0,0,0-1.92.5,3.54,3.54,0,0,0-1.33,1.41,4.52,4.52,0,0,0,0,4.06,3.56,3.56,0,0,0,1.33,1.4,3.92,3.92,0,0,0,3.84,0,3.48,3.48,0,0,0,1.32-1.41A4.33,4.33,0,0,0,505.17,1010.42Z"/><path class="cls-2" d="M521.25,1129.1c-3.45-2.11-7.73-2.6-12.72-1.46a.82.82,0,1,0,.36,1.59c4.56-1,8.43-.62,11.5,1.26a.82.82,0,0,0,.85-1.39Z"/><path class="cls-2" d="M483.24,1007a3.7,3.7,0,0,0-1.92-.5,3.74,3.74,0,0,0-1.94.5,3.48,3.48,0,0,0-1.32,1.4,4.26,4.26,0,0,0-.47,2,4.36,4.36,0,0,0,.47,2.06,3.39,3.39,0,0,0,1.32,1.4,3.8,3.8,0,0,0,1.94.49,3.75,3.75,0,0,0,1.92-.49,3.39,3.39,0,0,0,1.32-1.4,4.38,4.38,0,0,0,.47-2.06,4.27,4.27,0,0,0-.47-2A3.49,3.49,0,0,0,483.24,1007Z"/><polygon class="cls-2" points="407.29 963.29 410.86 963.29 409.1 958.49 407.29 963.29"/><path class="cls-2" d="M388.74,1006.45a3.51,3.51,0,0,0-2.45.88,3.7,3.7,0,0,0-1.17,2.37h7.06a3.22,3.22,0,0,0-3.44-3.25Z"/><path class="cls-2" d="M366,1006.45a3.51,3.51,0,0,0-2.45.88,3.7,3.7,0,0,0-1.17,2.37h7.06a3.22,3.22,0,0,0-3.44-3.25Z"/><path class="cls-2" d="M425.49,957.48H423v4h2.5A2.08,2.08,0,0,0,427,961a2,2,0,0,0,.54-1.51A2,2,0,0,0,427,958,2.11,2.11,0,0,0,425.49,957.48Z"/><path class="cls-2" d="M211.58,1089.55h-1.75v2.84h1.75a1.82,1.82,0,0,0,1.22-.37,1.34,1.34,0,0,0,.43-1.07,1.29,1.29,0,0,0-.43-1A1.86,1.86,0,0,0,211.58,1089.55Z"/><path class="cls-2" d="M518.56,1094.5a2.44,2.44,0,0,0,1.29.36,2.41,2.41,0,0,0,1.28-.35,2.57,2.57,0,0,0,.92-1,2.76,2.76,0,0,0,.34-1.36,2.7,2.7,0,0,0-.34-1.34,2.59,2.59,0,0,0-.92-1,2.42,2.42,0,0,0-1.28-.35,2.51,2.51,0,0,0-1.3.35,2.59,2.59,0,0,0-.95,1,2.77,2.77,0,0,0,0,2.7A2.69,2.69,0,0,0,518.56,1094.5Z"/><polygon class="cls-2" points="222.76 963.29 226.33 963.29 224.57 958.49 222.76 963.29"/><path class="cls-2" d="M471.22,838.94a10.29,10.29,0,0,0,4.19-.84,9.28,9.28,0,0,0,3.28-2.41,11.47,11.47,0,0,0,2.14-3.74,14.26,14.26,0,0,0,.78-4.84v-.78a14.07,14.07,0,0,0-.78-4.78,11.18,11.18,0,0,0-2.18-3.74,10,10,0,0,0-3.32-2.44,9.8,9.8,0,0,0-4.13-.88,10.06,10.06,0,0,0-4.16.84,9.88,9.88,0,0,0-3.28,2.37,10.81,10.81,0,0,0-2.18,3.7,14.07,14.07,0,0,0-.78,4.78v1q0,5.53,2.89,8.61A9.81,9.81,0,0,0,471.22,838.94Z"/><path class="cls-2" d="M444.83,895a10.53,10.53,0,0,0-3.18-1.82,10.69,10.69,0,0,0-3.67-.65,11.47,11.47,0,0,0-4,.68,10.09,10.09,0,0,0-5.53,4.81,10.62,10.62,0,0,0-1.14,3.61h20.8a9.37,9.37,0,0,0-1-3.77A9.23,9.23,0,0,0,444.83,895Z"/><path class="cls-2" d="M541.26,835.79a10,10,0,0,0,3.41,2.34,11,11,0,0,0,4.29.81,10.51,10.51,0,0,0,4.23-.84,10.16,10.16,0,0,0,3.41-2.41,11.46,11.46,0,0,0,2.31-3.74,13.3,13.3,0,0,0,.84-4.84v-.78a13.12,13.12,0,0,0-.84-4.78,11.46,11.46,0,0,0-2.31-3.74,10.49,10.49,0,0,0-3.45-2.44,10.25,10.25,0,0,0-4.19-.88,10.75,10.75,0,0,0-4.26.84,10.09,10.09,0,0,0-3.44,2.41,11.07,11.07,0,0,0-2.28,3.71,13.29,13.29,0,0,0-.81,4.75v1a13.69,13.69,0,0,0,.81,4.88A10.71,10.71,0,0,0,541.26,835.79Z"/><path class="cls-2" d="M555.94,895a10.53,10.53,0,0,0-3.18-1.82,10.69,10.69,0,0,0-3.67-.65,11.47,11.47,0,0,0-4,.68,10.09,10.09,0,0,0-5.53,4.81,10.62,10.62,0,0,0-1.14,3.61h20.8a9.37,9.37,0,0,0-1-3.77A9.23,9.23,0,0,0,555.94,895Z"/><path class="cls-2" d="M516.68,1010.95h-3.25a3.8,3.8,0,0,0-2,.4,1.38,1.38,0,0,0-.64,1.26,1.64,1.64,0,0,0,.65,1.37,2.78,2.78,0,0,0,1.74.5,4,4,0,0,0,2.32-.66,2.61,2.61,0,0,0,1.14-1.75Z"/><path class="cls-2" d="M521.29,958a3.15,3.15,0,0,0-1.76-.53,3.3,3.3,0,0,0-1.79.53,3.8,3.8,0,0,0-1.32,1.44,4.19,4.19,0,0,0-.49,2,4.25,4.25,0,0,0,.49,2,3.87,3.87,0,0,0,1.32,1.46,3.25,3.25,0,0,0,1.79.54,3.12,3.12,0,0,0,1.75-.54,3.72,3.72,0,0,0,1.27-1.45,4.48,4.48,0,0,0,.46-2,4.43,4.43,0,0,0-.46-2A3.66,3.66,0,0,0,521.29,958Z"/><path class="cls-2" d="M270,1094.45a2.29,2.29,0,0,0,.87-.92,2.83,2.83,0,0,0,.31-1.34,2.77,2.77,0,0,0-.33-1.36,2.37,2.37,0,0,0-.9-.93,2.52,2.52,0,0,0-1.29-.33h-1.63v5.21h1.72A2.42,2.42,0,0,0,270,1094.45Z"/><polygon class="cls-2" points="249.34 1010.61 255.52 1010.61 252.41 1003.47 249.34 1010.61"/><path class="cls-2" d="M283.63,957.48h-2.5v4h2.5a2.08,2.08,0,0,0,1.52-.52,2,2,0,0,0,.54-1.51,2,2,0,0,0-.54-1.48A2.11,2.11,0,0,0,283.63,957.48Z"/><path class="cls-2" d="M304,1007.32a3.41,3.41,0,0,0-2.44-.87,3.51,3.51,0,0,0-2.45.88,3.7,3.7,0,0,0-1.17,2.37H305A3.39,3.39,0,0,0,304,1007.32Z"/><path class="cls-2" d="M281.23,1092.84h-1.87v2h1.87a1.81,1.81,0,0,0,1.06-.27.87.87,0,0,0,.38-.75.83.83,0,0,0-.38-.72A1.79,1.79,0,0,0,281.23,1092.84Z"/><path class="cls-2" d="M316.37,916.94a10.29,10.29,0,0,0,4.19-.84,9.28,9.28,0,0,0,3.28-2.41A11.47,11.47,0,0,0,326,910a14.26,14.26,0,0,0,.78-4.84v-.78a14.07,14.07,0,0,0-.78-4.78,11.18,11.18,0,0,0-2.18-3.74,10,10,0,0,0-3.32-2.44,9.8,9.8,0,0,0-4.13-.88,10.06,10.06,0,0,0-4.16.84,9.88,9.88,0,0,0-3.28,2.37,10.81,10.81,0,0,0-2.18,3.7,14.07,14.07,0,0,0-.78,4.78v1q0,5.53,2.89,8.61A9.81,9.81,0,0,0,316.37,916.94Z"/><path class="cls-2" d="M327.26,819.83A9.23,9.23,0,0,0,325,817a10.53,10.53,0,0,0-3.18-1.82,10.69,10.69,0,0,0-3.67-.65,11.47,11.47,0,0,0-4,.68A10.09,10.09,0,0,0,308.6,820a10.62,10.62,0,0,0-1.14,3.61h20.8A9.37,9.37,0,0,0,327.26,819.83Z"/><path class="cls-2" d="M282.07,1091.12a.84.84,0,0,0,.31-.69.8.8,0,0,0-.31-.67,1.29,1.29,0,0,0-.85-.23h-1.87v1.84h1.87A1.32,1.32,0,0,0,282.07,1091.12Z"/><path class="cls-2" d="M557.59,1123.27a2.51,2.51,0,0,0-2.51,2.68,2.57,2.57,0,0,0,2.54,2.71,2.52,2.52,0,0,0,2.53-2.68A2.58,2.58,0,0,0,557.59,1123.27Z"/><path class="cls-2" d="M547.4,1123.25a2.71,2.71,0,0,0,0,5.39,2.44,2.44,0,0,0,2.38-2.7A2.47,2.47,0,0,0,547.4,1123.25Z"/><polygon class="cls-2" points="580.18 1089.96 578.85 1093.22 581.5 1093.22 580.18 1089.96"/><path class="cls-2" d="M549.14,1089.91a2.52,2.52,0,0,0-1.29-.33h-1.63v5.21h1.72a2.42,2.42,0,0,0,1.25-.33,2.29,2.29,0,0,0,.87-.92,2.83,2.83,0,0,0,.31-1.34,2.77,2.77,0,0,0-.33-1.36A2.37,2.37,0,0,0,549.14,1089.91Z"/><path class="cls-2" d="M595.17,817a10.55,10.55,0,0,0-3.19-1.82,10.68,10.68,0,0,0-3.67-.65,11.48,11.48,0,0,0-4,.68,10.09,10.09,0,0,0-5.52,4.81,10.65,10.65,0,0,0-1.14,3.61h20.8a9.36,9.36,0,0,0-1-3.77A9.25,9.25,0,0,0,595.17,817Z"/><path class="cls-2" d="M588.37,1122.26H588v.47h.37c.19,0,.3-.09.3-.24S588.56,1122.26,588.37,1122.26Z"/><path class="cls-2" d="M36,36V1188H756V36ZM571,916.16h11.31V893.28H572.18V888.6h15.21v27.56h10.53v4.68H571ZM580.24,879a4.55,4.55,0,1,1,1.33,3.22A4.38,4.38,0,0,1,580.24,879ZM533,826.2a17.83,17.83,0,0,1,1.3-7,15.79,15.79,0,0,1,3.44-5.2,14.51,14.51,0,0,1,5-3.22,16.46,16.46,0,0,1,6-1.11,12,12,0,0,1,6.14,1.53,10.55,10.55,0,0,1,4.13,4.45h.78V810.6h5.07v40.17a5,5,0,0,1-1.4,3.64,4.83,4.83,0,0,1-3.61,1.43h-21v-4.68H558q1.75,0,1.75-2V837.9H559a10.41,10.41,0,0,1-4.26,4.39,12.14,12.14,0,0,1-5.88,1.46,16.81,16.81,0,0,1-6.11-1.11,15.05,15.05,0,0,1-5-3.18,14.81,14.81,0,0,1-3.45-5.17,18.44,18.44,0,0,1-1.27-7.05ZM541.29,914q2.79,2.93,7.8,2.92a13.51,13.51,0,0,0,4-.52,9.25,9.25,0,0,0,2.89-1.43,7.8,7.8,0,0,0,2-2.11,12.09,12.09,0,0,0,1.2-2.57l4.81,1.3a14.24,14.24,0,0,1-5,7.31q-3.67,2.83-9.91,2.83a16.34,16.34,0,0,1-6.34-1.2,14.22,14.22,0,0,1-5-3.41,15.83,15.83,0,0,1-3.25-5.26,18.75,18.75,0,0,1-1.17-6.76v-1.56a16.4,16.4,0,0,1,1.2-6.3,15,15,0,0,1,3.35-5,15.68,15.68,0,0,1,5-3.31,16.17,16.17,0,0,1,6.27-1.2,15,15,0,0,1,6.86,1.46,15.28,15.28,0,0,1,4.75,3.61,14.92,14.92,0,0,1,3.61,9.36v4.16h-26A11.44,11.44,0,0,0,541.29,914Zm2.45,97.9a8.44,8.44,0,0,0-1.88-.76,12.59,12.59,0,0,1-1.82-.64,3.23,3.23,0,0,1-1.2-1,2.58,2.58,0,0,1-.49-1.64,2.64,2.64,0,0,1,1.13-2.33,4.9,4.9,0,0,1,2.83-.78,7.06,7.06,0,0,1,2,.28,5.93,5.93,0,0,1,1.69.77l-.71,1.49a6.69,6.69,0,0,0-1.52-.67,5.45,5.45,0,0,0-1.58-.25,2.71,2.71,0,0,0-1.42.33,1.09,1.09,0,0,0-.54,1,1.11,1.11,0,0,0,.6,1,8.67,8.67,0,0,0,1.82.7,14.35,14.35,0,0,1,1.89.67,3.37,3.37,0,0,1,1.25,1,3.06,3.06,0,0,1-.67,4.12,5.07,5.07,0,0,1-3,.82,7.38,7.38,0,0,1-2.4-.4,5.46,5.46,0,0,1-2-1.13l.74-1.43a5.18,5.18,0,0,0,1.71,1,5.68,5.68,0,0,0,2,.38,3,3,0,0,0,1.55-.36,1.19,1.19,0,0,0,.59-1.09A1.24,1.24,0,0,0,543.74,1011.91Zm1.48-43.07V954.12H549l6.24,8.21v-8.21h4v14.72h-3.72l-6.24-8.19v8.19Zm12.41,124.65a1.7,1.7,0,0,0-.56-.34q-.34-.13-.94-.3a10.55,10.55,0,0,1-1.41-.48,2.48,2.48,0,0,1-.94-.73,2,2,0,0,1-.4-1.31,2.22,2.22,0,0,1,.41-1.33,2.59,2.59,0,0,1,1.14-.88,4.39,4.39,0,0,1,1.7-.31,5.91,5.91,0,0,1,1.7.25,5.75,5.75,0,0,1,1.49.67l-.73,1.57a6.39,6.39,0,0,0-1.37-.63,4.19,4.19,0,0,0-1.24-.23,1.46,1.46,0,0,0-.78.18.59.59,0,0,0-.29.53.74.74,0,0,0,.41.68,6.38,6.38,0,0,0,1.28.49,11,11,0,0,1,1.42.5,2.52,2.52,0,0,1,1,.76,2.1,2.1,0,0,1,.4,1.33,2.28,2.28,0,0,1-.43,1.39,2.62,2.62,0,0,1-1.17.88,4.49,4.49,0,0,1-1.69.3,5.79,5.79,0,0,1-2-.36,5.41,5.41,0,0,1-1.7-1l.76-1.55a5.1,5.1,0,0,0,1.46.92,3.93,3.93,0,0,0,1.51.35,1.67,1.67,0,0,0,.92-.22.75.75,0,0,0,.11-1.16ZM529.08,954.12h4.37v8.63a2.79,2.79,0,0,0,.71,2,2.36,2.36,0,0,0,1.79.76,2.21,2.21,0,0,0,1.72-.75,2.88,2.88,0,0,0,.67-2v-8.63h4.37v8.63a6.63,6.63,0,0,1-.83,3.37,5.63,5.63,0,0,1-2.36,2.23,7.72,7.72,0,0,1-3.57.79,7.89,7.89,0,0,1-3.61-.79,5.74,5.74,0,0,1-2.41-2.23,6.5,6.5,0,0,1-.85-3.37Zm.17,52.65v-1.49h1.58v-3h2v3h3.4v1.49h-3.4v5.8a2.05,2.05,0,0,0,.34,1.32,1.24,1.24,0,0,0,1,.4,3.52,3.52,0,0,0,1.72-.53l.53,1.51a4.79,4.79,0,0,1-2.6.82,3,3,0,0,1-2.14-.79,3.17,3.17,0,0,1-.82-2.38v-6.15Zm-23.87-43.08a11.12,11.12,0,0,0-2-.68,18.29,18.29,0,0,1-2.54-.83,4.5,4.5,0,0,1-1.74-1.33,3.64,3.64,0,0,1-.74-2.37,4.18,4.18,0,0,1,.76-2.49,4.77,4.77,0,0,1,2.13-1.63,8.36,8.36,0,0,1,3.2-.57,11.86,11.86,0,0,1,3.3.47,10.92,10.92,0,0,1,2.86,1.25L509,958.86a14.15,14.15,0,0,0-2.58-1.18,7.49,7.49,0,0,0-2.31-.48,1.57,1.57,0,0,0-.89.22.72.72,0,0,0-.33.64,1,1,0,0,0,.63.91,11.19,11.19,0,0,0,2,.7,19.27,19.27,0,0,1,2.56.89A4.73,4.73,0,0,1,509.8,962a3.76,3.76,0,0,1,.75,2.44,4.15,4.15,0,0,1-.81,2.59,4.84,4.84,0,0,1-2.18,1.58,8.56,8.56,0,0,1-3.08.53,11.81,11.81,0,0,1-3.79-.64,10.59,10.59,0,0,1-3.29-1.75l1.64-3.32a9.8,9.8,0,0,0,2.72,1.63,7.49,7.49,0,0,0,2.76.66,2,2,0,0,0,1.11-.27.88.88,0,0,0,.4-.78A1,1,0,0,0,505.38,963.68Zm2.89,129.91a5.1,5.1,0,0,0,1.46.92,3.94,3.94,0,0,0,1.51.35,1.67,1.67,0,0,0,.92-.22.75.75,0,0,0,.11-1.16,1.7,1.7,0,0,0-.56-.34q-.34-.13-.94-.3a10.6,10.6,0,0,1-1.41-.48,2.48,2.48,0,0,1-.94-.73,2,2,0,0,1-.4-1.31,2.22,2.22,0,0,1,.41-1.33,2.58,2.58,0,0,1,1.14-.88,4.39,4.39,0,0,1,1.7-.31,5.9,5.9,0,0,1,1.7.25,5.77,5.77,0,0,1,1.49.67l-.73,1.57a6.35,6.35,0,0,0-1.37-.63,4.18,4.18,0,0,0-1.24-.23,1.46,1.46,0,0,0-.78.18.58.58,0,0,0-.29.53.74.74,0,0,0,.41.68,6.37,6.37,0,0,0,1.28.49,11.06,11.06,0,0,1,1.42.5,2.52,2.52,0,0,1,1,.76,2.09,2.09,0,0,1,.4,1.33,2.29,2.29,0,0,1-.43,1.39,2.62,2.62,0,0,1-1.17.88,4.49,4.49,0,0,1-1.69.3,5.79,5.79,0,0,1-2-.36,5.42,5.42,0,0,1-1.7-1Zm4.55-77.5a4.43,4.43,0,0,1-2-.44,3.24,3.24,0,0,1-1.34-1.22,3.29,3.29,0,0,1-.47-1.74,2.85,2.85,0,0,1,1.1-2.36,4.94,4.94,0,0,1,3.08-.89h3.53v-.52a2.3,2.3,0,0,0-.72-1.82,3.09,3.09,0,0,0-2.11-.64,6,6,0,0,0-3.42,1.2l-.82-1.34a10.15,10.15,0,0,1,2.21-1.12,7.54,7.54,0,0,1,2.43-.35,4.65,4.65,0,0,1,3.21,1,3.69,3.69,0,0,1,1.16,2.85l0,7.31H516.7v-1.55A4.56,4.56,0,0,1,512.82,1016.09Zm3.09,73.87a4.22,4.22,0,0,1,1.62-1.55,4.95,4.95,0,0,1,4.59,0,4.29,4.29,0,0,1,0,7.53,4.89,4.89,0,0,1-4.58,0,4.23,4.23,0,0,1-2.22-3.77A4.2,4.2,0,0,1,515.91,1090Zm7.95-79.82V1016h-2V1004.9h2v2.39a4,4,0,0,1,1.55-1.82,4.61,4.61,0,0,1,2.39-.64v1.89a3.57,3.57,0,0,0-3.95,3.42Zm3.63-48.7a7.57,7.57,0,0,1-1,3.94,7.36,7.36,0,0,1-2.88,2.75,9,9,0,0,1-8.22,0,7.37,7.37,0,0,1-2.87-2.75,7.57,7.57,0,0,1-1-3.94,7.42,7.42,0,0,1,1-3.9,7.34,7.34,0,0,1,2.87-2.72,9.05,9.05,0,0,1,8.22,0,7.33,7.33,0,0,1,2.88,2.72A7.42,7.42,0,0,1,527.49,961.45Zm-1.85-49.71a9.13,9.13,0,0,1-.94,4.19,9.36,9.36,0,0,1-2.6,3.15,11.68,11.68,0,0,1-4,2,20.64,20.64,0,0,1-11.64-.33,13.38,13.38,0,0,1-4.48-2.67,11.09,11.09,0,0,1-2.7-3.77,12.63,12.63,0,0,1-1-4.26l4.81-1.17a8.61,8.61,0,0,0,2.86,5.95,9.83,9.83,0,0,0,6.76,2.24,10.51,10.51,0,0,0,5.75-1.4,4.42,4.42,0,0,0,2.18-3.93,4.09,4.09,0,0,0-2.14-3.9,17.93,17.93,0,0,0-7-1.5q-5.59-.39-8.58-2.6a7.5,7.5,0,0,1-3-6.44v-.39a8,8,0,0,1,1-4A8.84,8.84,0,0,1,503.5,890a12.12,12.12,0,0,1,3.74-1.76,16,16,0,0,1,4.36-.58,16.28,16.28,0,0,1,5.59.88,12.9,12.9,0,0,1,4,2.28,9.91,9.91,0,0,1,2.5,3.22,12.43,12.43,0,0,1,1.14,3.64L520,898.87a6.89,6.89,0,0,0-2.5-4.87,8.79,8.79,0,0,0-5.69-1.75,11.66,11.66,0,0,0-2.63.29,7.69,7.69,0,0,0-2.24.88,4.82,4.82,0,0,0-1.56,1.46,3.6,3.6,0,0,0-.58,2,4,4,0,0,0,2,3.58q2,1.23,7.25,1.63,5.66.46,8.61,2.7a7.7,7.7,0,0,1,3,6.53ZM496.9,810.6H502v5.46h.78q3-6.37,10.4-6.37a11.73,11.73,0,0,1,8.91,3.48q3.31,3.48,3.32,10.43v19.24H520.3v-18.2q0-5.07-2.28-7.6a7.88,7.88,0,0,0-6.17-2.54,8.93,8.93,0,0,0-7.25,3.15,12.71,12.71,0,0,0-2.63,8.42v16.77H496.9Zm-22.65-12.84a4.55,4.55,0,1,1-1.33,3.22A4.38,4.38,0,0,1,474.25,797.76Zm-13,0a4.55,4.55,0,1,1-1.33,3.22A4.38,4.38,0,0,1,461.25,797.76Zm-5.62,28.44a19.54,19.54,0,0,1,1.17-7A15.05,15.05,0,0,1,460,814a13.79,13.79,0,0,1,4.78-3.22,15.28,15.28,0,0,1,5.79-1.11,12.41,12.41,0,0,1,6,1.46,10.27,10.27,0,0,1,4.26,4.52h.78V810.6h5.07v25.61q0,1.95,1.75,2h1.63v4.68h-3.45a4.82,4.82,0,0,1-3.61-1.43,5,5,0,0,1-1.4-3.64v-.39h-.78a10.57,10.57,0,0,1-4.32,4.81,11.66,11.66,0,0,1-5.82,1.56,16,16,0,0,1-5.92-1.07,13.41,13.41,0,0,1-4.78-3.19,15,15,0,0,1-3.22-5.17,19.74,19.74,0,0,1-1.17-7.08ZM482.56,895a7.88,7.88,0,0,0-6.17-2.54,8.93,8.93,0,0,0-7.25,3.15,12.71,12.71,0,0,0-2.63,8.42v16.77h-5.07V888.6h5.07v5.46h.78q3-6.37,10.4-6.37a11.73,11.73,0,0,1,8.91,3.48q3.31,3.48,3.32,10.43v19.24h-5.07v-18.2Q484.83,897.57,482.56,895Zm-27.21,59.08h12v3.36h-7.67v2.31h7v3.36h-7v2.33h7.88v3.36H455.35Zm-2.17-52v4.16h-26a11.44,11.44,0,0,0,3,7.73q2.79,2.93,7.8,2.92a13.51,13.51,0,0,0,4-.52,9.25,9.25,0,0,0,2.89-1.43,7.8,7.8,0,0,0,2-2.11,12.09,12.09,0,0,0,1.2-2.57l4.81,1.3a14.24,14.24,0,0,1-5,7.31q-3.67,2.83-9.91,2.83a16.34,16.34,0,0,1-6.34-1.2,14.22,14.22,0,0,1-5-3.41,15.83,15.83,0,0,1-3.25-5.26,18.75,18.75,0,0,1-1.17-6.76v-1.56a16.4,16.4,0,0,1,1.2-6.3,15,15,0,0,1,3.35-5,15.68,15.68,0,0,1,5-3.31,16.17,16.17,0,0,1,6.27-1.2,15,15,0,0,1,6.86,1.46,15.28,15.28,0,0,1,4.75,3.61,14.92,14.92,0,0,1,3.61,9.36Zm-31.52-64h11.7V802H422.05v-4.68h16.38v40.82h11.7v4.68H421.66Zm-38.34-40.82h5.46v20.15h1.5l17.48-20.15h6.76v.39l-18.85,22v.78l19.63,22v.39h-6.89l-18.13-20.28h-1.5v20.28h-5.46Zm-1.69,91.26h5.07v3.51h.78a6.59,6.59,0,0,1,2.47-3.35,6.79,6.79,0,0,1,3.83-1.07,6,6,0,0,1,3.87,1.24,6.33,6.33,0,0,1,2.11,3.18h.78a7.35,7.35,0,0,1,7-4.42,7,7,0,0,1,5.62,2.31,8.91,8.91,0,0,1,2,6v24.83H410.1V897.7a6.3,6.3,0,0,0-1-3.74,3.79,3.79,0,0,0-3.31-1.46,4.32,4.32,0,0,0-3.48,1.59,7.54,7.54,0,0,0-1.33,4.91v21.84h-5.07v-23.4a5.34,5.34,0,0,0-1.17-3.54,3.86,3.86,0,0,0-3.12-1.4,4.24,4.24,0,0,0-3.61,1.69,7.18,7.18,0,0,0-1.27,4.42v22.23h-5.07Zm17.24,71.19v3.36h-7v2.33h7.88v3.36H387.55V954.12h12v3.36h-7.67v2.31ZM380.5,960v-5.86h4.37v14.72H380.5v-5.48h-5.23v5.48H370.9V954.12h4.37V960Zm-39.6-71.38H346v3.51h.78a6.59,6.59,0,0,1,2.47-3.35,6.79,6.79,0,0,1,3.83-1.07,6,6,0,0,1,3.87,1.24,6.33,6.33,0,0,1,2.11,3.18h.78a7.35,7.35,0,0,1,7-4.42,7,7,0,0,1,5.62,2.31,8.91,8.91,0,0,1,2,6v24.83h-5.07V897.7a6.3,6.3,0,0,0-1-3.74A3.79,3.79,0,0,0,365,892.5a4.32,4.32,0,0,0-3.48,1.59A7.54,7.54,0,0,0,360.2,899v21.84h-5.07v-23.4A5.34,5.34,0,0,0,354,893.9a3.86,3.86,0,0,0-3.12-1.4,4.24,4.24,0,0,0-3.61,1.69,7.18,7.18,0,0,0-1.27,4.42v22.23h-5.07Zm-38.63-63a16.4,16.4,0,0,1,1.2-6.3,15,15,0,0,1,3.35-5,15.68,15.68,0,0,1,5-3.31,16.17,16.17,0,0,1,6.27-1.2,15,15,0,0,1,6.86,1.46,15.28,15.28,0,0,1,4.75,3.61,14.92,14.92,0,0,1,3.61,9.36v4.16h-26a11.44,11.44,0,0,0,3,7.73q2.79,2.93,7.8,2.92a13.51,13.51,0,0,0,4-.52A9.25,9.25,0,0,0,325,837a7.8,7.8,0,0,0,2-2.11,12.09,12.09,0,0,0,1.2-2.57l4.81,1.3a14.24,14.24,0,0,1-5,7.31q-3.67,2.83-9.91,2.83a16.34,16.34,0,0,1-6.34-1.2,14.22,14.22,0,0,1-5-3.41,15.83,15.83,0,0,1-3.25-5.26,18.75,18.75,0,0,1-1.17-6.76Zm-1.49,78.65a19.54,19.54,0,0,1,1.17-7,15.05,15.05,0,0,1,3.22-5.17,13.79,13.79,0,0,1,4.78-3.22,15.28,15.28,0,0,1,5.79-1.11,12.41,12.41,0,0,1,6,1.46,10.27,10.27,0,0,1,4.26,4.52h.78V888.6h5.07v25.61q0,1.95,1.75,2h1.63v4.68h-3.45a4.82,4.82,0,0,1-3.61-1.43,5,5,0,0,1-1.4-3.64v-.39H326a10.57,10.57,0,0,1-4.32,4.81,11.66,11.66,0,0,1-5.82,1.56,16,16,0,0,1-5.92-1.07,13.41,13.41,0,0,1-4.78-3.19,15,15,0,0,1-3.22-5.17,19.74,19.74,0,0,1-1.17-7.08Zm-1.69,49.92h3.74l6.24,8.21v-8.21h4v14.72h-3.72l-6.24-8.19v8.19h-4Zm-.45,51.44a5.66,5.66,0,0,1,2.88-.72,4.9,4.9,0,0,1,3.91,1.52,6.24,6.24,0,0,1,1.32,4.23q0,.42,0,.63h-8.78a3.78,3.78,0,0,0,1.25,2.37,3.7,3.7,0,0,0,2.51.88,4.7,4.7,0,0,0,1.84-.36,4.41,4.41,0,0,0,1.48-1l1.07,1.11a5.61,5.61,0,0,1-2,1.37,6.57,6.57,0,0,1-2.56.48,5.89,5.89,0,0,1-2.91-.7,4.93,4.93,0,0,1-2-2,6,6,0,0,1-.7-2.92,5.9,5.9,0,0,1,.7-2.91A5.11,5.11,0,0,1,298.64,1005.56Zm-2.23-36.72H292V954.12h4.37Zm-8.57,37.93v-1.49h1.58v-3h2v3h3.4v1.49h-3.4v5.8a2.05,2.05,0,0,0,.34,1.32,1.24,1.24,0,0,0,1,.4,3.52,3.52,0,0,0,1.72-.53l.53,1.51a4.79,4.79,0,0,1-2.6.82,3,3,0,0,1-2.14-.79,3.17,3.17,0,0,1-.82-2.38v-6.15Zm-3.68,85.89a2.13,2.13,0,0,1,.47,1.4,2,2,0,0,1-.85,1.7,3.84,3.84,0,0,1-2.32.62h-4V1088h3.86a3.76,3.76,0,0,1,2.2.56,1.78,1.78,0,0,1,.8,1.54,1.84,1.84,0,0,1-.39,1.17,1.94,1.94,0,0,1-1.06.68A2.12,2.12,0,0,1,284.16,1092.65Zm-2-76.58a7.38,7.38,0,0,1-2.4-.4,5.46,5.46,0,0,1-2-1.13l.74-1.43a5.18,5.18,0,0,0,1.71,1,5.68,5.68,0,0,0,2,.38,3,3,0,0,0,1.55-.36,1.19,1.19,0,0,0,.59-1.09,1.24,1.24,0,0,0-.62-1.13,8.44,8.44,0,0,0-1.88-.76,12.59,12.59,0,0,1-1.82-.64,3.23,3.23,0,0,1-1.2-1,2.58,2.58,0,0,1-.49-1.64,2.64,2.64,0,0,1,1.13-2.33,4.9,4.9,0,0,1,2.83-.78,7.06,7.06,0,0,1,2,.28,5.93,5.93,0,0,1,1.69.77l-.71,1.49a6.69,6.69,0,0,0-1.52-.67,5.45,5.45,0,0,0-1.58-.25,2.71,2.71,0,0,0-1.42.33,1.09,1.09,0,0,0-.54,1,1.11,1.11,0,0,0,.6,1,8.67,8.67,0,0,0,1.82.7,14.35,14.35,0,0,1,1.89.67,3.37,3.37,0,0,1,1.25,1,3.06,3.06,0,0,1-.67,4.12A5.07,5.07,0,0,1,282.17,1016.07Zm3.23-47.23-2-4h-2.31v4h-4.37V954.12h6.87a7,7,0,0,1,4.59,1.36,4.76,4.76,0,0,1,1.63,3.86,5.82,5.82,0,0,1-.64,2.8,4.76,4.76,0,0,1-1.84,1.88l3,4.81Zm-10,33.79a1.24,1.24,0,0,1-1.74,0,1.35,1.35,0,0,1,0-1.81,1.24,1.24,0,0,1,1.74,0,1.35,1.35,0,0,1,0,1.81Zm.12,2.27V1016h-2V1004.9Zm-1-84.16a13.37,13.37,0,0,1-4.49-2.67,11.08,11.08,0,0,1-2.7-3.77,12.61,12.61,0,0,1-1-4.26l4.81-1.17a8.62,8.62,0,0,0,2.86,5.95,9.83,9.83,0,0,0,6.76,2.24,10.51,10.51,0,0,0,5.75-1.4,4.42,4.42,0,0,0,2.18-3.93,4.09,4.09,0,0,0-2.15-3.9,17.92,17.92,0,0,0-7-1.5q-5.59-.39-8.58-2.6a7.5,7.5,0,0,1-3-6.44v-.39a8,8,0,0,1,1-4,8.83,8.83,0,0,1,2.63-2.89,12.1,12.1,0,0,1,3.74-1.76,16,16,0,0,1,4.35-.58,16.29,16.29,0,0,1,5.59.88,12.88,12.88,0,0,1,4,2.28,9.9,9.9,0,0,1,2.5,3.22,12.43,12.43,0,0,1,1.14,3.64l-4.81,1.17a6.89,6.89,0,0,0-2.5-4.87,8.79,8.79,0,0,0-5.69-1.75,11.65,11.65,0,0,0-2.63.29,7.68,7.68,0,0,0-2.24.88,4.82,4.82,0,0,0-1.56,1.46,3.61,3.61,0,0,0-.58,2,4,4,0,0,0,2,3.58q2,1.23,7.25,1.63,5.65.46,8.61,2.7a7.69,7.69,0,0,1,3,6.53v.39a9.12,9.12,0,0,1-.94,4.19,9.37,9.37,0,0,1-2.6,3.15,11.69,11.69,0,0,1-4,2,20.63,20.63,0,0,1-11.63-.33Zm-9-110.14h5.07v18.59q0,5.07,2.08,7.41t6.37,2.34a8.93,8.93,0,0,0,7.25-3.15,12.71,12.71,0,0,0,2.63-8.42V810.6H294v32.24h-5.07V837h-.78a13.21,13.21,0,0,1-4.09,4.94,10.77,10.77,0,0,1-6.44,1.82,13.35,13.35,0,0,1-4.91-.88,10,10,0,0,1-3.83-2.63,12.17,12.17,0,0,1-2.47-4.36,18.9,18.9,0,0,1-.88-6Zm-3.27,143.52h12v3.36h-7.67v2.31h7v3.36h-7v2.33h7.88v3.36H262.21ZM268.75,1088a4.83,4.83,0,0,1,2.29.53,3.88,3.88,0,0,1,1.57,1.49,4.24,4.24,0,0,1,.56,2.18,4.16,4.16,0,0,1-.57,2.18,3.93,3.93,0,0,1-1.59,1.49,4.94,4.94,0,0,1-2.33.53h-3.49V1088Zm-.74-72v-15.58h2V1016Zm-8.74,107.5h-3.65a4.52,4.52,0,0,1-2.2-4.13c0-3.66,3.24-5.36,6.25-5.36a6.58,6.58,0,0,1,5.41,2.34l-1.14,1a5.29,5.29,0,0,0-4.35-2c-2.12,0-4.58,1.28-4.58,4C255,1121.91,257,1122.76,259.27,1123.51Zm-10.17-33.92V1088h7v1.61h-2.57v6.79h-1.9v-6.79Zm13.92,1.79v1.57h-4v1.86h4.63v1.57h-6.53V1088h6.4v1.57H259v1.82ZM257.85,1016l-1.55-3.57h-7.75L247,1016h-2.12l6.53-14.7h2.1L260,1016Zm-29.09,77.49a1.7,1.7,0,0,0-.56-.34q-.34-.13-.94-.3a10.55,10.55,0,0,1-1.41-.48,2.48,2.48,0,0,1-.94-.73,2,2,0,0,1-.4-1.31,2.22,2.22,0,0,1,.41-1.33,2.59,2.59,0,0,1,1.14-.88,4.39,4.39,0,0,1,1.7-.31,5.91,5.91,0,0,1,1.7.25,5.75,5.75,0,0,1,1.49.67l-.73,1.57a6.39,6.39,0,0,0-1.37-.63,4.19,4.19,0,0,0-1.24-.23,1.46,1.46,0,0,0-.78.18.59.59,0,0,0-.29.53.74.74,0,0,0,.41.68,6.38,6.38,0,0,0,1.28.49,11,11,0,0,1,1.42.5,2.52,2.52,0,0,1,1,.76,2.1,2.1,0,0,1,.4,1.33,2.28,2.28,0,0,1-.43,1.39,2.62,2.62,0,0,1-1.17.88,4.49,4.49,0,0,1-1.69.3,5.79,5.79,0,0,1-2-.36,5.41,5.41,0,0,1-1.7-1l.76-1.55a5.1,5.1,0,0,0,1.46.92,3.93,3.93,0,0,0,1.51.35,1.67,1.67,0,0,0,.92-.22.75.75,0,0,0,.11-1.16Zm-.41-124.65-.86-2.35h-5.94l-.88,2.35h-4.49l6.28-14.72h4.49L233,968.84ZM216.62,1088H223v1.57h-4.5v1.82h4v1.57h-4v1.86h4.63v1.57h-6.53Zm10.6,26.08c2.71,0,5.64,1.06,7.09,3.07l-2.18,1.67a6.16,6.16,0,0,0-4.91-2.32,7.39,7.39,0,0,0-7.46,7h-3C217.16,1117.84,221.52,1114.05,227.22,1114.05Zm5.22-17.68V1088h6.4v1.57h-4.5v1.82h4v1.57h-4v1.86H239v1.57Zm3.2-127.54V957.6h-4.26v-3.49h12.94v3.49H240v11.24Zm4.9,119.14h1.73l4.08,5.42V1088h1.8v8.4h-1.73l-4.07-5.4v5.4h-1.81Zm19-119.14h-4.37v-5.48h-5.23v5.48h-4.37V954.12h4.37V960h5.23v-5.86h4.37Zm-.88-48H231.74v-4.68H243V893.28H232.91V888.6h15.21v27.56h10.53ZM241,879a4.55,4.55,0,1,1,1.33,3.22A4.38,4.38,0,0,1,241,879Zm-14.42-53.43a16.4,16.4,0,0,1,1.2-6.3,15,15,0,0,1,3.35-5,15.68,15.68,0,0,1,5-3.31,16.17,16.17,0,0,1,6.27-1.2,15,15,0,0,1,6.86,1.46,15.28,15.28,0,0,1,4.75,3.61,14.92,14.92,0,0,1,3.61,9.36v4.16h-26a11.44,11.44,0,0,0,3,7.73q2.79,2.93,7.8,2.92a13.51,13.51,0,0,0,4-.52,9.25,9.25,0,0,0,2.89-1.43,7.8,7.8,0,0,0,2-2.11,12.09,12.09,0,0,0,1.2-2.57l4.81,1.3a14.24,14.24,0,0,1-5,7.31q-3.67,2.83-9.91,2.83a16.34,16.34,0,0,1-6.34-1.2,14.22,14.22,0,0,1-5-3.41,15.83,15.83,0,0,1-3.25-5.26,18.75,18.75,0,0,1-1.17-6.76Zm-5.14,67.21a14.92,14.92,0,0,1,3.61,9.36v4.16H199a11.44,11.44,0,0,0,3,7.73q2.79,2.93,7.8,2.92a13.51,13.51,0,0,0,4-.52,9.25,9.25,0,0,0,2.89-1.43,7.8,7.8,0,0,0,2-2.11,12.09,12.09,0,0,0,1.2-2.57l4.81,1.3a14.24,14.24,0,0,1-5,7.31q-3.67,2.83-9.91,2.83a16.34,16.34,0,0,1-6.34-1.2,14.22,14.22,0,0,1-5-3.41,15.83,15.83,0,0,1-3.25-5.26,18.75,18.75,0,0,1-1.17-6.76v-1.56a16.4,16.4,0,0,1,1.2-6.3,15,15,0,0,1,3.35-5,15.68,15.68,0,0,1,5-3.31,16.17,16.17,0,0,1,6.27-1.2,15,15,0,0,1,6.86,1.46A15.28,15.28,0,0,1,221.42,892.76Zm-15.17,70.77A3.69,3.69,0,0,0,207.6,965a3.59,3.59,0,0,0,1.91.53,5.34,5.34,0,0,0,2.23-.61v-3.67h3.76v6a10.59,10.59,0,0,1-3,1.39,11.29,11.29,0,0,1-3.34.55,8.24,8.24,0,0,1-4.05-1,7.35,7.35,0,0,1-2.83-2.74,7.57,7.57,0,0,1-1-3.93,7.32,7.32,0,0,1,4-6.64,8.92,8.92,0,0,1,4.21-1,9.8,9.8,0,0,1,3.36.61,8.68,8.68,0,0,1,2.86,1.66l-2.48,3a5.85,5.85,0,0,0-1.77-1.18,5,5,0,0,0-2-.44,3.55,3.55,0,0,0-1.9.53,3.66,3.66,0,0,0-1.33,1.44,4.51,4.51,0,0,0,0,4.08Zm9,132.85h-2.15l-1.33-2.4h-1.93v2.4h-1.9V1088h3.65a3.83,3.83,0,0,1,2.54.76,2.67,2.67,0,0,1,.9,2.15,3.24,3.24,0,0,1-.4,1.66,2.57,2.57,0,0,1-1.17,1ZM198.66,966.27a17.56,17.56,0,0,0,1.88,4.29h-3.78a14.11,14.11,0,0,1-2-4.21,17.28,17.28,0,0,1,0-9.77,14.11,14.11,0,0,1,2-4.21h3.78a17.56,17.56,0,0,0-1.88,4.29,17.21,17.21,0,0,0,0,9.6ZM199.79,1088h3.56a3.67,3.67,0,0,1,2.48.76,2.7,2.7,0,0,1,.88,2.15,2.93,2.93,0,0,1-.88,2.27,3.53,3.53,0,0,1-2.48.81h-1.67v2.4h-1.9Zm-11-290.64h10.92l13.13,43.16h.78V797.34h5.46v45.5H208.18L195,799.68h-.78v43.16h-5.46Zm-15.06,123.5H155.35v-5.07h3.9V880.41h-3.9v-5.07h18.39a16.8,16.8,0,0,1,5.75.91,12.67,12.67,0,0,1,4.22,2.47,10.06,10.06,0,0,1,2.6,3.74,12.5,12.5,0,0,1,.88,4.71v.78a9.75,9.75,0,0,1-.58,3.44,9.46,9.46,0,0,1-1.62,2.79,10.36,10.36,0,0,1-2.44,2.11,11.46,11.46,0,0,1-3,1.33v.78a11,11,0,0,1,5.46,3.48,9.29,9.29,0,0,1,2.21,6.27v.78a12.49,12.49,0,0,1-.88,4.71,10.35,10.35,0,0,1-2.6,3.77,12.36,12.36,0,0,1-4.22,2.5A16.77,16.77,0,0,1,173.75,920.84Zm15.86,214a6.31,6.31,0,0,1-6.42-4.63l4.21-1.42a2,2,0,0,0,2,1.73c1.27,0,1.75-.8,1.88-2l4.82-.18C195.9,1131.31,194.57,1134.84,189.61,1134.84Zm6.5-11.33h-4.8v-9h4.8Zm4.56,10.8h-3.93l2.67-6.13,3.72-.14Zm6.08-15.57-1.86,4.77h-3.45l3.9-9h3l3.86,9h-3.6Zm6.11,15.57-2.56-6.53,3.71-.14,2.87,6.67Zm14.25.5a9.94,9.94,0,0,1-10-7.29l3.08-.11a7.07,7.07,0,0,0,6.93,4.95,6.25,6.25,0,0,0,5.3-2.62l2.2,1.51A9,9,0,0,1,227.11,1134.81Zm12-.5h-2v-7.53l2-.07Zm-2-10.8v-9h2v8.87h0l9.4-8.87h2.87l-10,9Zm11.91,10.8-7.23-7.7,2.59-.1,7.59,7.8Zm10.1.53a7.24,7.24,0,0,1-6-2.85l1.12-1a6,6,0,0,0,4.85,2.43c2.32,0,4.69-1.42,4.69-4.1a3.65,3.65,0,0,0-2.39-3.46l2.66-.1a4.55,4.55,0,0,1,1.35,3.48C265.39,1133.05,262.24,1134.84,259.09,1134.84ZM278.33,1114a9.92,9.92,0,0,1,10.14,9.48h-1.09a9.08,9.08,0,0,0-18.14,0h-1.09A9.93,9.93,0,0,1,278.33,1114Zm0,20.81a9.92,9.92,0,0,1-10.15-9.21l1.09,0a8.91,8.91,0,0,0,9.06,8.3c5.32,0,8.86-4,9.07-9l1.09,0A10,10,0,0,1,278.33,1134.84Zm11.43-38.46h-1.9v-2.66l-3.11-5.74h1.91l2.15,3.77,2.1-3.77h1.91l-3.06,5.69Zm3.67,37.93h-.61v-9.6l.61,0Zm.08-19h-.08v8.17h-.61v-9h.87l6.71,9h-.77Zm15.07,19h-.89l-7.38-9.87.76,0,6.82,9.09H308v-9.35l.61,0Zm0-10.8H308v-9h.61Zm11.1-107.5h-2v-6.34a3,3,0,0,0-.79-2.19,2.94,2.94,0,0,0-2.17-.79,3.36,3.36,0,0,0-2.43,1,3.76,3.76,0,0,0-1.06,2.42V1016h-2V1004.9h2v2.35a4.29,4.29,0,0,1,4.22-2.42,4.08,4.08,0,0,1,3.07,1.14,4.34,4.34,0,0,1,1.11,3.16Zm5.2,0h-2V1004.9h2Zm-.12-13.38a1.24,1.24,0,0,1-1.74,0,1.35,1.35,0,0,1,0-1.81,1.24,1.24,0,0,1,1.74,0,1.35,1.35,0,0,1,0,1.81Zm-1.94-33.5a8.24,8.24,0,0,1-4.05-1,7.35,7.35,0,0,1-2.83-2.74,7.57,7.57,0,0,1-1-3.93,7.32,7.32,0,0,1,4-6.64,8.92,8.92,0,0,1,4.21-1,9.8,9.8,0,0,1,3.36.61,8.68,8.68,0,0,1,2.86,1.66l-2.48,3a5.85,5.85,0,0,0-1.77-1.18,5,5,0,0,0-2-.44,3.55,3.55,0,0,0-1.9.53,3.66,3.66,0,0,0-1.33,1.44,4.51,4.51,0,0,0,0,4.08,3.69,3.69,0,0,0,1.35,1.45,3.59,3.59,0,0,0,1.91.53,5.34,5.34,0,0,0,2.23-.61v-3.67h3.76v6a10.59,10.59,0,0,1-3,1.39A11.29,11.29,0,0,1,322.82,969.13Zm15.9,46.87h-2v-6.34a3,3,0,0,0-.79-2.19,2.94,2.94,0,0,0-2.17-.79,3.36,3.36,0,0,0-2.43,1,3.76,3.76,0,0,0-1.06,2.42V1016h-2V1004.9h2v2.35a4.29,4.29,0,0,1,4.22-2.42,4.08,4.08,0,0,1,3.07,1.14,4.34,4.34,0,0,1,1.11,3.16ZM335,957.6v-3.49H348v3.49h-4.28v11.24h-4.39V957.6Zm17,57.27a5.41,5.41,0,0,1-.7,2.79,4.67,4.67,0,0,1-2,1.84,6.57,6.57,0,0,1-3,.64,7.59,7.59,0,0,1-4.58-1.55l.86-1.43a5.91,5.91,0,0,0,1.7,1,5.54,5.54,0,0,0,1.93.33,3.86,3.86,0,0,0,2.75-1,3.38,3.38,0,0,0,1-2.58v-1.55a4.14,4.14,0,0,1-1.6,1.56,4.7,4.7,0,0,1-2.31.56,5,5,0,0,1-2.64-.68,4.65,4.65,0,0,1-1.77-1.9,6,6,0,0,1-.63-2.79,5.82,5.82,0,0,1,.63-2.75,4.62,4.62,0,0,1,1.77-1.87,5.1,5.1,0,0,1,2.64-.67,4.75,4.75,0,0,1,2.32.55,4.08,4.08,0,0,1,1.59,1.55v-2h2Zm.24-46.74a7.37,7.37,0,0,1-2.87-2.75,7.57,7.57,0,0,1-1-3.94,7.42,7.42,0,0,1,1-3.9,7.34,7.34,0,0,1,2.87-2.72,9.05,9.05,0,0,1,8.22,0,7.33,7.33,0,0,1,2.88,2.72,7.42,7.42,0,0,1,1,3.9,7.57,7.57,0,0,1-1,3.94,7.36,7.36,0,0,1-2.88,2.75,9,9,0,0,1-8.22,0Zm18.91,43.08h-8.78a3.78,3.78,0,0,0,1.25,2.37,3.7,3.7,0,0,0,2.51.88,4.7,4.7,0,0,0,1.84-.36,4.42,4.42,0,0,0,1.48-1l1.07,1.11a5.62,5.62,0,0,1-2,1.37,6.58,6.58,0,0,1-2.56.48,5.89,5.89,0,0,1-2.91-.7,4.94,4.94,0,0,1-2-2,6,6,0,0,1-.7-2.92,5.89,5.89,0,0,1,.7-2.91,5.11,5.11,0,0,1,2-2,5.66,5.66,0,0,1,2.88-.72,4.9,4.9,0,0,1,3.91,1.52,6.24,6.24,0,0,1,1.32,4.23Q371.21,1011,371.18,1011.22Zm7.08,4.79h-2l-4.35-11.11H374l3.34,9.18,3.32-9.18h2Zm15.67-4.79h-8.78a3.78,3.78,0,0,0,1.25,2.37,3.7,3.7,0,0,0,2.51.88,4.7,4.7,0,0,0,1.84-.36,4.41,4.41,0,0,0,1.48-1l1.07,1.11a5.61,5.61,0,0,1-2,1.37,6.57,6.57,0,0,1-2.56.48,5.89,5.89,0,0,1-2.91-.7,4.93,4.93,0,0,1-2-2,6,6,0,0,1-.7-2.92,5.9,5.9,0,0,1,.7-2.91,5.11,5.11,0,0,1,2-2,5.66,5.66,0,0,1,2.88-.72,4.9,4.9,0,0,1,3.91,1.52,6.24,6.24,0,0,1,1.32,4.23Q393.95,1011,393.93,1011.22Zm12.95,4.79h-2v-6.34a3,3,0,0,0-.79-2.19,2.94,2.94,0,0,0-2.17-.79,3.36,3.36,0,0,0-2.43,1,3.76,3.76,0,0,0-1.06,2.42V1016h-2V1004.9h2v2.35a4.29,4.29,0,0,1,4.22-2.42,4.08,4.08,0,0,1,3.07,1.14,4.34,4.34,0,0,1,1.11,3.16Zm6.5.08a3,3,0,0,1-2.14-.79,3.16,3.16,0,0,1-.82-2.38v-6.15h-1.58v-1.49h1.58v-3h2v3h3.4v1.49h-3.4v5.8a2.06,2.06,0,0,0,.34,1.32,1.24,1.24,0,0,0,1,.4,3.52,3.52,0,0,0,1.72-.53l.52,1.51A4.79,4.79,0,0,1,413.38,1016.09Zm-.5-47.25-.86-2.35h-5.94l-.88,2.35H400.7L407,954.12h4.49l6.07,14.72ZM426.23,1016h-2V1004.9h2Zm-.12-13.38a1.24,1.24,0,0,1-1.74,0,1.35,1.35,0,0,1,0-1.81,1.24,1.24,0,0,1,1.74,0,1.35,1.35,0,0,1,0,1.81Zm-.81-37.76H423v4h-4.37V954.12h6.87a7,7,0,0,1,4.59,1.36,4.76,4.76,0,0,1,1.63,3.86,5.82,5.82,0,0,1-.64,2.8,4.76,4.76,0,0,1-1.84,1.88l3,4.81h-5ZM440.07,1016h-2v-6.34a3,3,0,0,0-.79-2.19,2.94,2.94,0,0,0-2.17-.79,3.36,3.36,0,0,0-2.43,1,3.76,3.76,0,0,0-1.06,2.42V1016h-2V1004.9h2v2.35a4.29,4.29,0,0,1,4.22-2.42A4.08,4.08,0,0,1,439,1006a4.34,4.34,0,0,1,1.11,3.16Zm2.64-47.17h-4V954.12h3.74l6.24,8.21v-8.21h4v14.72h-3.72l-6.24-8.19Zm10.13,47.25a3,3,0,0,1-2.14-.79,3.17,3.17,0,0,1-.82-2.38v-6.15H448.3v-1.49h1.58v-3h2v3h3.4v1.49h-3.4v5.8a2.05,2.05,0,0,0,.34,1.32,1.24,1.24,0,0,0,1,.4,3.52,3.52,0,0,0,1.72-.53l.53,1.51A4.79,4.79,0,0,1,452.84,1016.09Zm18-.08h-2l-3.07-8.74-3.07,8.74h-2l-4.12-11.11h2l3.11,9.18,3.07-9.18h2l3.09,9.18,3.07-9.18h2Zm15.39-2.65a5.11,5.11,0,0,1-2,2,6.49,6.49,0,0,1-5.92,0,5.13,5.13,0,0,1-2-2,6.24,6.24,0,0,1,0-5.84,5.14,5.14,0,0,1,2-2,6.5,6.5,0,0,1,5.92,0,5.14,5.14,0,0,1,2,2,6.22,6.22,0,0,1,0,5.83Zm1.1-44.52h-4.49l-2.48-9.43-2.56,9.43h-4.47l-4.93-14.72h4.66l2.65,10.23,2.63-10.23h4.26l2.65,10.21,2.6-10.21h4.47Zm12,46.64a4.21,4.21,0,0,1-1.68-1.68v6.28h-2V1004.9h2v2.21a4.24,4.24,0,0,1,1.67-1.68,5,5,0,0,1,2.45-.59,5.38,5.38,0,0,1,2.77.71,4.91,4.91,0,0,1,1.89,2,6.75,6.75,0,0,1,0,5.85,4.8,4.8,0,0,1-1.87,2,5.38,5.38,0,0,1-2.76.7A5.06,5.06,0,0,1,499.4,1015.48Zm16.12,122a13.09,13.09,0,1,1,13.09-13.09A13.09,13.09,0,0,1,515.51,1137.53Zm15.76-41.45a4.22,4.22,0,0,1-2,.44,4.3,4.3,0,0,1-2-.44,3.08,3.08,0,0,1-1.31-1.25,3.84,3.84,0,0,1-.46-1.91V1088h1.9v4.93a2,2,0,0,0,.51,1.42,1.82,1.82,0,0,0,1.36.52,1.74,1.74,0,0,0,1.32-.52,2,2,0,0,0,.49-1.43V1088H533v4.93a3.88,3.88,0,0,1-.45,1.91A3.06,3.06,0,0,1,531.27,1096.07Zm6.32,34.6a7.38,7.38,0,0,1-5-1.91.15.15,0,0,1,0-.21l1.24-1.47a.15.15,0,0,1,.1-.05.16.16,0,0,1,.11,0,5.19,5.19,0,0,0,3.6,1.49c1.19,0,1.93-.51,1.93-1.34s-.36-1.16-2.53-1.66c-2.54-.61-4-1.41-4-3.66,0-2.1,1.71-3.56,4.15-3.56a6.68,6.68,0,0,1,4.34,1.5.15.15,0,0,1,0,.2l-1.1,1.56a.15.15,0,0,1-.1.06.15.15,0,0,1-.11,0,5.14,5.14,0,0,0-3.09-1.17c-1.05,0-1.76.51-1.76,1.26s.4,1.17,2.66,1.71c2.75.67,3.88,1.71,3.88,3.59C541.92,1129.24,540.22,1130.68,537.59,1130.68Zm4.83-34.3h-1.73l-4.07-5.4v5.4h-1.81V1088h1.73l4.08,5.42V1088h1.8Zm5.45,34.32a3.64,3.64,0,0,1-2.85-1.29V1133a.15.15,0,0,1-.15.15h-2a.15.15,0,0,1-.15-.15v-11.51a.15.15,0,0,1,.15-.15h2a.15.15,0,0,1,.15.15v1a3.55,3.55,0,0,1,2.85-1.37c2.12,0,4.26,1.63,4.26,4.75S550,1130.69,547.87,1130.69Zm3.86-36.34a3.93,3.93,0,0,1-1.59,1.49,4.94,4.94,0,0,1-2.33.53h-3.49V1088h3.56a4.83,4.83,0,0,1,2.29.53,3.88,3.88,0,0,1,1.57,1.49,4.24,4.24,0,0,1,.56,2.18A4.16,4.16,0,0,1,551.73,1094.36Zm5.86,36.36a4.76,4.76,0,1,1,4.88-4.77A4.73,4.73,0,0,1,557.59,1130.71Zm10.85-7.44a.15.15,0,0,1-.15.15h-2.23v4.18c0,.66.29,1,.94,1a2.55,2.55,0,0,0,1.19-.29.15.15,0,0,1,.21.13v1.66a.15.15,0,0,1-.07.13,3.69,3.69,0,0,1-1.9.47,2.41,2.41,0,0,1-2.69-2.74v-4.5h-1a.15.15,0,0,1-.15-.15v-1.74a.15.15,0,0,1,.15-.15h1v-2.28a.15.15,0,0,1,.15-.15h2a.15.15,0,0,1,.15.15v2.28h2.23a.15.15,0,0,1,.15.15Zm-1.82-26.89-3.3-8.4h2l2.29,6.34L570,1088h2l-3.34,8.4Zm5.08,34a.15.15,0,0,1-.15.15h-2a.15.15,0,0,1-.15-.15v-8.83a.15.15,0,0,1,.15-.15h2a.15.15,0,0,1,.15.15Zm-1.15-10.1a1.45,1.45,0,1,1,1.45-1.45A1.45,1.45,0,0,1,570.56,1120.27Zm-2.39-151.43h-6.3V954.12h6.45a9,9,0,0,1,4.15.91,6.67,6.67,0,0,1,2.78,2.58,8,8,0,0,1,0,7.72,6.74,6.74,0,0,1-2.83,2.59A9.33,9.33,0,0,1,568.17,968.84ZM579.26,1088h2l3.59,8.4h-2l-.66-1.63h-3.89l-.66,1.63h-2Zm-4.54,0v8.4h-1.9V1088Zm8.34,42.69c-.73,1.87-1.55,2.57-3,2.57a4.26,4.26,0,0,1-2.16-.55.15.15,0,0,1-.06-.19l.69-1.51a.15.15,0,0,1,.09-.08.15.15,0,0,1,.12,0,2.34,2.34,0,0,0,1.12.32c.44,0,.76-.15,1.09-.87l-2.9-6.94h-1.89v6.94a.15.15,0,0,1-.15.15h-2a.15.15,0,0,1-.15-.15v-6.94h-1a.15.15,0,0,1-.15-.15v-1.75a.15.15,0,0,1,.15-.15h1v-.43c0-2,1-3,2.86-3a5.55,5.55,0,0,1,1.68.24.15.15,0,0,1,.1.14V1120a.15.15,0,0,1-.19.14,3.41,3.41,0,0,0-1.14-.21c-.71,0-1,.37-1,1.19v.28h3.46a.15.15,0,0,1,.14.1l2.36,6.17,2.16-6.17a.15.15,0,0,1,.14-.1h2.11a.15.15,0,0,1,.14.2Zm5.24-6.45a1.43,1.43,0,1,1,1.43-1.43A1.42,1.42,0,0,1,588.29,1124.22ZM582.87,959a11.19,11.19,0,0,0,2,.7,19.27,19.27,0,0,1,2.56.89,4.73,4.73,0,0,1,1.75,1.38,3.76,3.76,0,0,1,.75,2.44,4.15,4.15,0,0,1-.81,2.59,4.84,4.84,0,0,1-2.18,1.58,8.56,8.56,0,0,1-3.08.53,11.81,11.81,0,0,1-3.79-.64,10.59,10.59,0,0,1-3.29-1.75l1.64-3.32a9.8,9.8,0,0,0,2.72,1.63,7.49,7.49,0,0,0,2.76.66,2,2,0,0,0,1.11-.27.88.88,0,0,0,.4-.78,1,1,0,0,0-.65-.93,11.12,11.12,0,0,0-2-.68,18.29,18.29,0,0,1-2.54-.83,4.5,4.5,0,0,1-1.74-1.33,3.64,3.64,0,0,1-.74-2.37,4.18,4.18,0,0,1,.76-2.49,4.77,4.77,0,0,1,2.13-1.63,8.36,8.36,0,0,1,3.2-.57,11.86,11.86,0,0,1,3.3.47A10.92,10.92,0,0,1,590,955.5l-1.62,3.36a14.15,14.15,0,0,0-2.58-1.18,7.49,7.49,0,0,0-2.31-.48,1.57,1.57,0,0,0-.89.22.72.72,0,0,0-.33.64A1,1,0,0,0,582.87,959Zm14.4,7.37a14.09,14.09,0,0,1-2,4.21h-3.78a17.6,17.6,0,0,0,1.88-4.29,17.21,17.21,0,0,0,0-9.6,17.6,17.6,0,0,0-1.88-4.29h3.78a14.09,14.09,0,0,1,2,4.21,17.31,17.31,0,0,1,0,9.77Zm6.25-138.07h-26a11.43,11.43,0,0,0,3,7.73q2.79,2.93,7.8,2.92a13.5,13.5,0,0,0,4-.52,9.26,9.26,0,0,0,2.89-1.43,7.83,7.83,0,0,0,2-2.11,12.14,12.14,0,0,0,1.2-2.57l4.81,1.3a14.23,14.23,0,0,1-5,7.31q-3.67,2.83-9.91,2.83a16.34,16.34,0,0,1-6.34-1.2,14.23,14.23,0,0,1-5-3.41,15.85,15.85,0,0,1-3.25-5.26,18.78,18.78,0,0,1-1.17-6.76v-1.56a16.4,16.4,0,0,1,1.2-6.3,15,15,0,0,1,3.35-5,15.7,15.7,0,0,1,5-3.31,16.17,16.17,0,0,1,6.27-1.2,15,15,0,0,1,6.86,1.46,15.29,15.29,0,0,1,4.75,3.61,14.93,14.93,0,0,1,3.61,9.36Zm31.18,92.56h-5.07v-18.2q0-5.07-2.28-7.6a7.88,7.88,0,0,0-6.17-2.54,8.93,8.93,0,0,0-7.25,3.15,12.71,12.71,0,0,0-2.63,8.42v16.77h-5.07V888.6h5.07v5.46h.78q3-6.37,10.4-6.37a11.73,11.73,0,0,1,8.91,3.48q3.31,3.48,3.32,10.43Z"/><path class="cls-2" d="M588.3,1121.51a1.29,1.29,0,1,0,1.27,1.28A1.27,1.27,0,0,0,588.3,1121.51Zm.38,2-.36-.52H588v.52h-.28V1122h.67c.35,0,.58.18.58.48a.45.45,0,0,1-.35.45l.4.56Z"/><path class="cls-2" d="M568.24,957.56h-2v7.85h2.21a3,3,0,0,0,2.42-1.07,4.19,4.19,0,0,0,.92-2.83,4.1,4.1,0,0,0-1-2.86A3.29,3.29,0,0,0,568.24,957.56Z"/><path class="cls-2" d="M507.34,1119.09a1.22,1.22,0,1,0,.71,2.34c4-1.22,11-1,15.21,1.51a1.22,1.22,0,1,0,1.25-2.11C519.65,1118,512,1117.69,507.34,1119.09Z"/><path d="M473.59,586.6a77.68,77.68,0,0,0-155.18,0,21.32,21.32,0,0,0-18.32,21.05v24.18a21.39,21.39,0,0,0,21.36,21.36h4A21.14,21.14,0,0,0,339,648.26a59.63,59.63,0,0,0,114.09,0,21.15,21.15,0,0,0,13.48,4.93h4a21.39,21.39,0,0,0,21.36-21.36V607.65A21.33,21.33,0,0,0,473.59,586.6ZM396,523a67.32,67.32,0,0,1,67.11,63.64A21.14,21.14,0,0,0,453,591.22a59.63,59.63,0,0,0-114.09,0,21.14,21.14,0,0,0-10.07-4.58A67.33,67.33,0,0,1,396,523ZM336.36,631.83a10.89,10.89,0,0,1-10.88,10.88h-4a10.89,10.89,0,0,1-10.88-10.88V607.65a10.89,10.89,0,0,1,10.88-10.88h4a10.89,10.89,0,0,1,10.88,10.88v24.18ZM396,680a49.22,49.22,0,0,1-49.17-49.16V608.61a49.16,49.16,0,1,1,98.33,0v22.27A49.22,49.22,0,0,1,396,680Zm85.43-48.21a10.89,10.89,0,0,1-10.88,10.88h-4a10.89,10.89,0,0,1-10.88-10.88V607.65a10.89,10.89,0,0,1,10.88-10.88h4a10.89,10.89,0,0,1,10.88,10.88Z"/><path d="M318.41,260.93a77.68,77.68,0,0,0,155.18,0,21.32,21.32,0,0,0,18.32-21.05V215.7a21.39,21.39,0,0,0-21.36-21.36h-4A21.14,21.14,0,0,0,453,199.27a59.63,59.63,0,0,0-114.09,0,21.15,21.15,0,0,0-13.48-4.93h-4a21.39,21.39,0,0,0-21.36,21.36v24.18A21.33,21.33,0,0,0,318.41,260.93ZM396,324.53a67.32,67.32,0,0,1-67.11-63.64A21.14,21.14,0,0,0,339,256.31a59.63,59.63,0,0,0,114.09,0,21.14,21.14,0,0,0,10.07,4.58A67.33,67.33,0,0,1,396,324.53ZM455.65,215.7a10.89,10.89,0,0,1,10.88-10.88h4a10.89,10.89,0,0,1,10.88,10.88v24.18a10.89,10.89,0,0,1-10.88,10.88h-4a10.89,10.89,0,0,1-10.88-10.88V215.7ZM396,167.49a49.22,49.22,0,0,1,49.17,49.16v22.27a49.16,49.16,0,1,1-98.33,0V216.65A49.22,49.22,0,0,1,396,167.49ZM310.57,215.7a10.89,10.89,0,0,1,10.88-10.88h4a10.89,10.89,0,0,1,10.88,10.88v24.18a10.89,10.89,0,0,1-10.88,10.88h-4a10.89,10.89,0,0,1-10.88-10.88Z"/><path d="M575.82,438a77.68,77.68,0,0,0-77.59,134.39,21.32,21.32,0,0,0,9.07,26.39l20.94,12.09A21.39,21.39,0,0,0,557.42,603l2-3.49a21.14,21.14,0,0,0,2.47-14.14,59.63,59.63,0,0,0,57-98.8,21.15,21.15,0,0,0,11-9.21l2-3.49a21.39,21.39,0,0,0-7.82-29.18l-20.94-12.09A21.33,21.33,0,0,0,575.82,438Zm-93.87,35.4a67.32,67.32,0,0,1,88.67-26.3,21.14,21.14,0,0,0-1.06,11,59.63,59.63,0,0,0-57,98.81,21.14,21.14,0,0,0-9,6.43A67.33,67.33,0,0,1,481.94,473.39Zm64.43,106.07a10.89,10.89,0,0,1,4,14.86l-2,3.49a10.89,10.89,0,0,1-14.86,4L512.53,589.7a10.89,10.89,0,0,1-4-14.86l2-3.49a10.89,10.89,0,0,1,14.86-4l.82.48L545.55,579Zm71.57-27.55a49.22,49.22,0,0,1-67.16,18l-19.29-11.14a49.16,49.16,0,1,1,49.16-85.16l19.29,11.14A49.22,49.22,0,0,1,617.94,551.91Zm1-98.09a10.89,10.89,0,0,1,4,14.86l-2,3.49a10.89,10.89,0,0,1-14.86,4l-.82-.48L585.9,464.53l-.82-.48a10.89,10.89,0,0,1-4-14.86l2-3.49a10.89,10.89,0,0,1,14.86-4Z"/><path d="M216.18,409.54a77.68,77.68,0,0,0,77.59-134.39,21.32,21.32,0,0,0-9.07-26.39l-20.94-12.09a21.39,21.39,0,0,0-29.18,7.82l-2,3.49a21.14,21.14,0,0,0-2.47,14.14,59.63,59.63,0,0,0-57,98.8,21.15,21.15,0,0,0-11,9.21l-2,3.49a21.39,21.39,0,0,0,7.82,29.18l20.94,12.09A21.33,21.33,0,0,0,216.18,409.54Zm93.87-35.4a67.32,67.32,0,0,1-88.67,26.3,21.14,21.14,0,0,0,1.06-11,59.63,59.63,0,0,0,57-98.81,21.14,21.14,0,0,0,9-6.43A67.33,67.33,0,0,1,310.06,374.14ZM245.63,268.08a10.89,10.89,0,0,1-4-14.86l2-3.49a10.89,10.89,0,0,1,14.86-4l20.94,12.09a10.89,10.89,0,0,1,4,14.86l-2,3.49a10.89,10.89,0,0,1-14.86,4l-.82-.48-19.29-11.14Zm-71.57,27.55a49.22,49.22,0,0,1,67.16-18l19.29,11.14a49.16,49.16,0,1,1-49.16,85.16l-19.29-11.14A49.22,49.22,0,0,1,174.06,295.62Zm-1,98.09a10.89,10.89,0,0,1-4-14.86l2-3.49a10.89,10.89,0,0,1,14.86-4l.82.48L206.1,383l.82.48a10.89,10.89,0,0,1,4,14.86l-2,3.49a10.89,10.89,0,0,1-14.86,4Z"/><path d="M498.23,275.15a77.68,77.68,0,0,0,77.59,134.39,21.32,21.32,0,0,0,27.39,5.34l20.94-12.09A21.39,21.39,0,0,0,632,373.62l-2-3.49a21.14,21.14,0,0,0-11-9.21,59.63,59.63,0,0,0-57-98.8A21.15,21.15,0,0,0,559.43,248l-2-3.49a21.39,21.39,0,0,0-29.18-7.82L507.3,248.76A21.33,21.33,0,0,0,498.23,275.15Zm-16.28,99a67.32,67.32,0,0,1,21.55-89.94,21.14,21.14,0,0,0,9,6.43,59.63,59.63,0,0,0,57,98.8,21.14,21.14,0,0,0,1.07,11A67.33,67.33,0,0,1,481.95,374.15ZM606,371.39a10.89,10.89,0,0,1,14.86,4l2,3.49a10.89,10.89,0,0,1-4,14.86L598,405.81a10.89,10.89,0,0,1-14.86-4l-2-3.49a10.89,10.89,0,0,1,4-14.86l.82-.48,19.29-11.14Zm11.93-75.76a49.22,49.22,0,0,1-18,67.16l-19.29,11.14a49.16,49.16,0,1,1-49.16-85.16l19.29-11.14A49.22,49.22,0,0,1,617.95,295.63Zm-84.47-49.88a10.89,10.89,0,0,1,14.86,4l2,3.49a10.89,10.89,0,0,1-4,14.86l-.82.48-19.29,11.14-.82.48a10.89,10.89,0,0,1-14.86-4l-2-3.49a10.89,10.89,0,0,1,4-14.86Z"/><path d="M293.78,572.38A77.68,77.68,0,0,0,216.18,438a21.32,21.32,0,0,0-27.39-5.34l-20.94,12.09A21.39,21.39,0,0,0,160,473.91l2,3.49a21.14,21.14,0,0,0,11,9.21,59.63,59.63,0,0,0,57,98.8,21.15,21.15,0,0,0,2.47,14.14l2,3.49a21.39,21.39,0,0,0,29.18,7.82l20.94-12.09A21.33,21.33,0,0,0,293.78,572.38Zm16.28-99a67.32,67.32,0,0,1-21.55,89.94,21.14,21.14,0,0,0-9-6.43,59.63,59.63,0,0,0-57-98.8,21.14,21.14,0,0,0-1.07-11A67.33,67.33,0,0,1,310.06,473.38ZM186,476.15a10.89,10.89,0,0,1-14.86-4l-2-3.49a10.89,10.89,0,0,1,4-14.86L194,441.72a10.89,10.89,0,0,1,14.86,4l2,3.49a10.89,10.89,0,0,1-4,14.86l-.82.48-19.29,11.14ZM174.06,551.9a49.22,49.22,0,0,1,18-67.16l19.29-11.14a49.16,49.16,0,1,1,49.16,85.16L241.21,569.9A49.22,49.22,0,0,1,174.06,551.9Zm84.47,49.88a10.89,10.89,0,0,1-14.86-4l-2-3.49a10.89,10.89,0,0,1,4-14.86l.82-.48,19.29-11.14.82-.48a10.89,10.89,0,0,1,14.86,4l2,3.49a10.89,10.89,0,0,1-4,14.86Z"/></g></svg>